<svg width="21" height="20" fill="none" xmlns="http://www.w3.org/2000/svg"><path fill-rule="evenodd" clip-rule="evenodd" d="M10.3334 0C7.61754 0 7.27754.0116667 6.21087.06 2.57921.226667.560874 2.24167.394207 5.87667.345041 6.94417.333374 7.28417.333374 10c0 2.7158.011667 3.0567.06 4.1233.166667 3.6317 2.181666 5.65 5.816666 5.8167 1.0675.0483 1.4075.06 4.12336.06 2.7158 0 3.0566-.0117 4.1233-.06 3.6283-.1667 5.6517-2.1817 5.8158-5.8167.0492-1.0666.0609-1.4075.0609-4.1233 0-2.71583-.0117-3.05583-.06-4.1225-.1634-3.62833-2.1809-5.65-5.8159-5.8166667C13.39.0116667 13.0492 0 10.3334 0Zm0 1.8025c2.67 0 2.9866.01 4.0416.05833 2.71.12334 3.9759 1.40917 4.0992 4.09917.0483 1.05417.0575 1.37083.0575 4.0408 0 2.6709-.01 2.9867-.0575 4.0409-.1242 2.6875-1.3867 3.9758-4.0992 4.0991-1.055.0484-1.37.0584-4.0416.0584-2.67003 0-2.98669-.01-4.04086-.0584-2.71667-.1241-3.97583-1.4158-4.09917-4.1-.04833-1.0541-.05833-1.37-.05833-4.0408 0-2.67.01083-2.98583.05833-4.04083C2.31754 3.27 3.58004 1.98333 6.29254 1.86c1.055-.0475 1.37083-.0575 4.04086-.0575ZM5.19837 10c0-2.83583 2.29917-5.135 5.13503-5.135 2.8358 0 5.135 2.29917 5.135 5.135 0 2.8367-2.2992 5.1358-5.135 5.1358-2.83586 0-5.13503-2.3-5.13503-5.1358Zm5.13503 3.3333c-1.84086 0-3.33336-1.4916-3.33336-3.3333 0-1.84083 1.4925-3.33333 3.33336-3.33333 1.8408 0 3.3333 1.4925 3.3333 3.33333 0 1.8417-1.4925 3.3333-3.3333 3.3333Zm4.1375-8.6708c0-.6625.5375-1.2 1.2008-1.2.6625 0 1.1992.5375 1.1992 1.2s-.5367 1.2-1.1992 1.2c-.6633 0-1.2008-.5375-1.2008-1.2Z" fill="#fff"/></svg>