<svg width="147" height="24" fill="none" xmlns="http://www.w3.org/2000/svg"><path fill-rule="evenodd" clip-rule="evenodd" d="M118.704 23.7408c1.2 0 2.274-.1406 3.22-.4219.947-.2812 1.743-.6728 2.387-1.1746.644-.5018 1.178-1.1167 1.602-1.8447.424-.7279.729-1.522.916-2.3823.188-.8603.281-1.8033.281-2.8291V.264706h-3.782V2.00184h-.066c-.683-.65074-1.467-1.147061-2.353-1.488972C120.022.170956 119.1 0 118.142 0c-1.508 0-2.862.358456-4.062 1.07537-1.2.71691-2.134 1.71231-2.8 2.98621-.666 1.2739-.999 2.70496-.999 4.2932 0 1.61029.35 3.03862 1.049 4.28492.699 1.2463 1.66 2.2031 2.882 2.8704 1.222.6673 2.598 1.0009 4.129 1.0009 2.047 0 3.716-.6728 5.004-2.0184h.066v1.7537c0 1.1691-.43 2.1397-1.288 2.9118-.859.772-2.07 1.1581-3.634 1.1581-1.068 0-2.006-.1324-2.816-.3971-.809-.2647-1.742-.6783-2.799-1.2408l-.892 3.3419c.925.5515 1.966.9761 3.122 1.2739 1.156.2978 2.356.4467 3.6.4467ZM40.0142 8.55331v8.25549h-3.782V8.18934c0-3.15441-1.0955-4.73162-3.2865-4.73162-1.1561 0-2.1057.45496-2.8489 1.36489-.7432.90993-1.1148 2.15349-1.1148 3.7307v8.23899H25.2V.264706h3.782V2.54779h.0496c.6716-.81617 1.456-1.44209 2.3534-1.877753.8973-.435662 1.8304-.6534929 2.7993-.6534929 2.3011 0 3.9417.9154409 4.9216 2.7463259h.066c.6937-.89338 1.547-1.57445 2.5599-2.043201 1.0129-.46875 2.1305-.7031249 3.3526-.7031249 1.8607 0 3.292.5983459 4.294 1.7950359 1.0019 1.19669 1.5028 3.00276 1.5028 5.4182v9.57902h-3.782V8.18934c0-3.15441-1.0789-4.73162-3.2369-4.73162-1.1011 0-2.0177.45496-2.7498 1.36489-.7322.90993-1.0983 2.15349-1.0983 3.7307Zm26.3529 6.02209c-1.2552 1.6544-3.0058 2.4816-5.2519 2.4816-1.134 0-2.1938-.2013-3.1792-.6039-.9854-.4025-1.8304-.9678-2.5351-1.6957-.7046-.728-1.2606-1.6214-1.668-2.6802-.4074-1.0588-.6111-2.21691-.6111-3.47426 0-1.22426.2037-2.37132.6111-3.44117.4074-1.06986.9634-1.97978 1.668-2.72978.7047-.75 1.547-1.34008 2.5269-1.770225.9799-.430147 2.0313-.6452209 3.1544-.6452209 2.147 0 3.848.7444849 5.1032 2.2334559h.066V.264706h3.782V16.7923h-3.6168v-2.2169h-.0495Zm-4.6573-.9596c-1.3983 0-2.5379-.466-3.4187-1.398-.8808-.932-1.3212-2.1314-1.3212-3.59832 0-1.55514.4541-2.80422 1.3625-3.74724.9083-.94301 2.0396-1.41452 3.3939-1.41452 1.3432 0 2.458.49357 3.3443 1.4807.8863.98713 1.3295 2.21415 1.3295 3.68106 0 1.46692-.4542 2.66632-1.3625 3.59832-.9084.932-2.0176 1.398-3.3278 1.398Zm27.1125-6.55146v9.74446h-3.782V8.04044c0-.86029-.0771-1.58823-.2312-2.18382-.1541-.59559-.3909-1.0671-.7102-1.41452-.3193-.34743-.6908-.59835-1.1147-.75276-.4239-.15441-.9332-.23162-1.5277-.23162-1.2992 0-2.3369.44118-3.1131 1.32353-.7762.88235-1.1644 2.11765-1.1644 3.70588v8.30517h-3.782V.264706h3.782V2.53125h.0496c.6936-.81618 1.5194-1.43934 2.4773-1.869485.9579-.430147 1.9763-.6452209 3.0553-.6452209 1.8938 0 3.3774.5762869 4.4509 1.7288559 1.0735 1.15258 1.6102 2.92556 1.6102 5.31894ZM99.0397 17.057c2.2463 0 3.9963-.8272 5.2523-2.4816h.049v2.2169h3.617V.264706h-3.782V2.25h-.066C102.855.761029 101.154.0165441 99.0067.0165441c-1.123 0-2.1745.2150739-3.1544.6452209-.9799.430145-1.8222 1.020225-2.5268 1.770225-.7047.75-1.2607 1.65992-1.6681 2.72978-.4073 1.06985-.611 2.21691-.611 3.44117 0 1.25735.2037 2.41546.611 3.47426.4074 1.0588.9634 1.9522 1.6681 2.6802.7046.7279 1.5497 1.2932 2.5351 1.6957.9854.4026 2.0451.6039 3.1791.6039Zm-2.8241-4.8392c.8809.932 2.0204 1.398 3.4187 1.398 1.3107 0 2.4197-.466 3.3277-1.398.908-.932 1.363-2.1314 1.363-3.59832 0-1.46691-.444-2.69393-1.33-3.68106-.886-.98713-2.001-1.4807-3.3442-1.4807-1.3542 0-2.4855.47151-3.3939 1.41452-.9083.94302-1.3625 2.1921-1.3625 3.74724 0 1.46692.4404 2.66632 1.3212 3.59832Zm19.2434-.4963c.886.8658 2.012 1.2987 3.377 1.2987 1.376 0 2.497-.4549 3.361-1.3649.864-.9099 1.296-2.06523 1.296-3.46596 0-1.38971-.443-2.52022-1.329-3.39155-.886-.87132-1.996-1.30698-3.328-1.30698-1.398 0-2.532.44118-3.402 1.32353-.87.88235-1.305 2.0239-1.305 3.42463 0 1.45588.443 2.61673 1.33 3.48253Zm22.463 5.3355c1.542 0 2.899-.2813 4.071-.8438 1.173-.5625 2.133-1.3235 2.882-2.2831l-2.642-2.2665c-1.035 1.3015-2.406 1.9522-4.113 1.9522-1.211 0-2.237-.3364-3.08-1.0092-.842-.6728-1.384-1.5937-1.626-2.76285h12.023c.066-.39706.099-.8989.099-1.50551 0-1.59927-.325-3.02758-.975-4.28493-.649-1.25735-1.585-2.24449-2.807-2.9614C140.532.375 139.122.0165441 137.526.0165441c-1.134 0-2.197.2068019-3.188.6204049-.991.413601-1.844.989891-2.559 1.728861-.716.73897-1.278 1.63787-1.685 2.69669-.407 1.05882-.611 2.2114-.611 3.45772 0 1.68748.369 3.18478 1.106 4.49168.738 1.307 1.746 2.308 3.023 3.0028 1.277.6949 2.714 1.0423 4.31 1.0423ZM133.48 6.78309h8.257c-.242-1.02574-.707-1.8364-1.395-2.43199-.688-.59559-1.561-.89338-2.618-.89338-1.046 0-1.949.28952-2.709.86857-.759.57904-1.271 1.39797-1.535 2.4568Z" fill="#242D52"/><g fill="#F3603C"><path fill-rule="evenodd" clip-rule="evenodd" d="M5.57143 2.85714c0 1.57796-1.24721 2.85715-2.78572 2.85715C1.24721 5.71429 0 4.4351 0 2.85714 0 1.27919 1.24721 0 2.78571 0c1.53851 0 2.78572 1.27919 2.78572 2.85714Zm0 10.28576C5.57143 14.7208 4.32422 16 2.78571 16 1.24721 16 0 14.7208 0 13.1429c0-1.578 1.24721-2.8572 2.78571-2.8572 1.53851 0 2.78572 1.2792 2.78572 2.8572Zm7.24287-7.42861c1.5385 0 2.7857-1.27919 2.7857-2.85715C15.6 1.27919 14.3528 0 12.8143 0c-1.5385 0-2.7857 1.27919-2.7857 2.85714 0 1.57796 1.2472 2.85715 2.7857 2.85715Z"/><ellipse opacity=".5" cx="12.8143" cy="13.2572" rx="2.78571" ry="2.85714"/></g></svg>