<svg width="21" height="20" fill="none" xmlns="http://www.w3.org/2000/svg"><path fill-rule="evenodd" clip-rule="evenodd" d="M10.3333 0C4.81081 0 .333313 4.4775.333313 10S4.81081 20 10.3333 20c5.5225 0 10-4.4775 10-10s-4.4775-10-10-10Zm3.7008 14.0767c-1.7516.12-5.65329.12-7.40245 0-1.89667-.13-2.1175-1.0584-2.13167-4.0767.01417-3.02417.2375-3.94667 2.13167-4.07667 1.74916-.12 5.65165-.12 7.40245 0 1.8975.13 2.1175 1.05834 2.1325 4.07667-.015 3.0242-.2375 3.9467-2.1325 4.0767Zm-1.27-4.08003L8.66665 8.04833v3.90337l4.09745-1.95503Z" fill="#fff"/></svg>